<?xml version="1.0" encoding="utf-8"?>
<!-- Generator: Adobe Illustrator 17.1.0, SVG Export Plug-In . SVG Version: 6.00 Build 0)  -->
<!DOCTYPE svg PUBLIC "-//W3C//DTD SVG 1.1//EN" "http://www.w3.org/Graphics/SVG/1.1/DTD/svg11.dtd">
<svg version="1.1" id="Layer_1" xmlns="http://www.w3.org/2000/svg" xmlns:xlink="http://www.w3.org/1999/xlink" x="0px" y="0px"
	 viewBox="0 0 80 80" enable-background="new 0 0 80 80" xml:space="preserve">
<g>
	<path d="M40.1,55.5c-7.3,0-13.3-5.9-13.3-13.3c0-7.3,5.9-13.3,13.3-13.3c7.3,0,13.3,5.9,13.3,13.3C53.3,49.5,47.4,55.5,40.1,55.5z
		 M40.1,31c-6.2,0-11.3,5.1-11.3,11.3c0,6.2,5.1,11.3,11.3,11.3c6.2,0,11.3-5.1,11.3-11.3C51.3,36,46.3,31,40.1,31z"/>
	<path d="M16,64.7L16,64.7c-5.1,0-9.3-4.2-9.3-9.3V30.2c0-5.1,4.2-9.3,9.3-9.3l30.6-0.5c0.7-2.8,3.2-4.5,6.9-4.5h3.7
		c3.7,0,6.2,1.7,6.9,4.5h0.5c2.5,0,4.8,1,6.6,2.7c1.8,1.8,2.7,4.1,2.7,6.6v25.3c0,5.1-4.2,9.3-9.3,9.3L16,64.7z M53.4,18.8
		c-1.5,0-4.1,0.4-4.1,3v1.5L16,23.8c-3.5,0-6.3,2.8-6.3,6.3v25.3c0,3.5,2.8,6.3,6.3,6.3l48.6-0.6c3.5,0,6.3-2.8,6.3-6.3V29.6
		c0-1.7-0.7-3.3-1.8-4.5c-1.2-1.2-2.8-1.8-4.5-1.8h-3.4v-1.5c0-2.6-2.6-3-4.1-3H53.4z"/>
</g>
</svg>
