<?xml version="1.0" encoding="utf-8"?>
<!-- Generator: Adobe Illustrator 17.1.0, SVG Export Plug-In . SVG Version: 6.00 Build 0)  -->
<!DOCTYPE svg PUBLIC "-//W3C//DTD SVG 1.1//EN" "http://www.w3.org/Graphics/SVG/1.1/DTD/svg11.dtd">
<svg version="1.1" id="Layer_1" xmlns="http://www.w3.org/2000/svg" xmlns:xlink="http://www.w3.org/1999/xlink" x="0px" y="0px"
	 viewBox="0 0 80 80" enable-background="new 0 0 80 80" xml:space="preserve">
<g>
	<path d="M54.4,48v17.3c0,1-0.8,1.8-1.8,1.8H16.5c-0.3-1.5-1.6-2.7-3.2-2.9V28.9c0-1,0.8-1.8,1.8-1.8h20.4v-3H15.1
		c-2.7,0-4.8,2.2-4.8,4.8v36.4c0,0,0,0,0,0.1c-0.6,0.6-1,1.5-1,2.5c0,2,1.6,3.6,3.6,3.6c1.1,0,2.1-0.5,2.7-1.3h36.9
		c2.7,0,4.8-2.2,4.8-4.8V48H54.4z"/>
	<path d="M74.4,15.4c0.1-2.4-0.8-4.6-2.5-6.3c-1.7-1.6-3.9-2.5-6.3-2.4c-2.4,0.1-4.6,1.1-6.3,2.8L22.1,46.9c-1.4,1.2-2.6,2.9-3,5
		l-2.6,12.4l12.2-1.8c2.1-0.3,4.1-1.5,5.6-3.2l37.3-37.6C73.3,20,74.3,17.7,74.4,15.4z M61.4,11.6c1.2-1.2,2.7-1.9,4.3-2
		c1.2-0.1,2.3,0.3,3.3,0.9L32.2,47.1l-1-1c-0.7-0.7-1.6-1.2-2.7-1.3L61.4,11.6z M28.3,59.5l-7.9,1.2l1.7-8.2
		c0.6-2.7,3.4-4.8,5.5-4.8c0.6,0,1.1,0.2,1.5,0.6l3.9,3.9c0.9,0.9,0.6,2.2,0.4,2.9c-0.2,0.7-0.7,1.5-1.2,2.2L32,57.3l0,0
		C31.1,58.4,29.8,59.3,28.3,59.5z M69.4,19.6L36.5,52.8c-0.2-1.1-0.6-2.1-1.4-2.8l-1.5-1.5L70.4,12c0.6,0.9,1,2.1,0.9,3.3
		C71.3,16.9,70.6,18.4,69.4,19.6z"/>
</g>
</svg>
