<?xml version="1.0" encoding="iso-8859-1"?>
<!-- Generator: Adobe Illustrator 17.1.0, SVG Export Plug-In . SVG Version: 6.00 Build 0)  -->
<!DOCTYPE svg PUBLIC "-//W3C//DTD SVG 1.1//EN" "http://www.w3.org/Graphics/SVG/1.1/DTD/svg11.dtd">
<svg version="1.1" id="Layer_1" xmlns="http://www.w3.org/2000/svg" xmlns:xlink="http://www.w3.org/1999/xlink" x="0px" y="0px"
	 viewBox="0 0 80 80" style="enable-background:new 0 0 80 80;" xml:space="preserve">
<g>
	<path style="fill:none;stroke:#000000;stroke-width:3;stroke-miterlimit:10;" d="M35.593,25.551H15.147
		c-1.845,0-3.34,1.495-3.34,3.34v36.404c0,1.845,1.495,3.34,3.34,3.34h37.437c1.845,0,3.34-1.495,3.34-3.34V47.991"/>
	<circle cx="12.937" cy="67.816" r="3.601"/>
	<g>
		<g>
			<path style="fill:none;stroke:#000000;stroke-width:3;stroke-miterlimit:10;" d="M22.919,48.244l37.394-37.686
				c3.004-3.027,7.721-3.217,10.536-0.424l0,0c2.815,2.793,2.662,7.512-0.342,10.539L33.114,58.36"/>
			<path style="fill:none;stroke:#000000;stroke-width:3;stroke-miterlimit:10;" d="M30.111,47.162l3.917,3.887
				c2.899,2.876-0.628,9.253-5.512,9.967l-10.044,1.468l2.125-10.295C21.546,47.591,27.418,44.489,30.111,47.162z"/>
		</g>
		<line style="fill:none;stroke:#000000;stroke-width:2;stroke-miterlimit:10;" x1="31.727" y1="49" x2="70.849" y2="10.134"/>
	</g>
</g>
</svg>
