<?xml version="1.0" encoding="utf-8"?>
<!-- Generator: Adobe Illustrator 17.1.0, SVG Export Plug-In . SVG Version: 6.00 Build 0)  -->
<!DOCTYPE svg PUBLIC "-//W3C//DTD SVG 1.1//EN" "http://www.w3.org/Graphics/SVG/1.1/DTD/svg11.dtd">
<svg version="1.1" id="Layer_1" xmlns="http://www.w3.org/2000/svg" xmlns:xlink="http://www.w3.org/1999/xlink" x="0px" y="0px"
	 viewBox="0 0 80 80" enable-background="new 0 0 80 80" xml:space="preserve">
<path fill="#231F20" d="M893.1,81.5l-1.4-1.6c-0.6-0.7-1.7-0.8-2.4-0.1l-16.7,15.1l-4.5-5.2c-0.6-0.7-1.7-0.8-2.4-0.2l-1,0.8
	c-0.7,0.6-0.8,1.7-0.2,2.4l7.1,8c0.6,0.7,1.7,0.8,2.4,0.2l0.8-0.7c0.1-0.1,0.3-0.1,0.4-0.2L893,84C893.7,83.3,893.7,82.2,893.1,81.5
	z"/>
<path fill="#231F20" d="M57.6,33.3L42.7,47.6c-2,1.9-5.1,1.8-6.9-0.1L21.2,33.3"/>
</svg>
