<?xml version="1.0" encoding="utf-8"?>
<!-- Generator: Adobe Illustrator 17.1.0, SVG Export Plug-In . SVG Version: 6.00 Build 0)  -->
<!DOCTYPE svg PUBLIC "-//W3C//DTD SVG 1.1//EN" "http://www.w3.org/Graphics/SVG/1.1/DTD/svg11.dtd">
<svg version="1.1" id="Layer_1" xmlns="http://www.w3.org/2000/svg" xmlns:xlink="http://www.w3.org/1999/xlink" x="0px" y="0px"
	 viewBox="0 0 80 80" enable-background="new 0 0 80 80" xml:space="preserve">
<path d="M57.6,73H23c-4.4,0-8-3.6-8-8V46.2h-3.3c-1.7,0-3.3-0.7-4.4-1.9c-1.1-1.2-1.6-2.7-1.5-4.3c0.1-1.7,0.9-3.3,2.1-4.5L35.1,8.2
	C36.5,6.8,38.4,6,40.3,6c1.9,0,3.8,0.8,5.2,2.1l6.5,6.5v-2.4c0-3.2,2.8-5.8,6.1-5.5c2.8,0.3,5,2.8,5,5.7v13.3l9.7,9.7
	c1.5,1.5,2.3,3.7,2.1,5.9c-0.3,2.7-2.7,4.9-5.6,4.9h-3.6V65C65.6,69.4,62,73,57.6,73z M40.3,9c-1.1,0-2.2,0.4-3,1.3L10,37.5
	c-0.7,0.7-1.2,1.7-1.2,2.7c-0.1,0.7,0.2,1.4,0.7,2c0.6,0.6,1.4,1,2.2,1H18V65c0,2.8,2.2,5,5,5h34.6c2.8,0,5-2.2,5-5V43.2h6.6
	c1.3,0,2.5-1,2.6-2.2c0.1-1.3-0.3-2.5-1.2-3.5L60.1,27V12.5c0-1.4-1-2.6-2.3-2.7c-1.5-0.1-2.8,1-2.8,2.5v9.6L43.4,10.3
	C42.5,9.5,41.5,9,40.3,9z"/>
</svg>
