<?xml version="1.0" encoding="iso-8859-1"?>
<!-- Generator: Adobe Illustrator 17.1.0, SVG Export Plug-In . SVG Version: 6.00 Build 0)  -->
<!DOCTYPE svg PUBLIC "-//W3C//DTD SVG 1.1//EN" "http://www.w3.org/Graphics/SVG/1.1/DTD/svg11.dtd">
<svg version="1.1" id="Layer_1" xmlns="http://www.w3.org/2000/svg" xmlns:xlink="http://www.w3.org/1999/xlink" x="0px" y="0px"
	 viewBox="0 0 80 80" style="enable-background:new 0 0 80 80;" xml:space="preserve">
<path style="fill:none;stroke:#000000;stroke-width:3;stroke-miterlimit:10;" d="M71.67,36.484L61.555,26.369V12.473
	c0-2.101-1.536-3.978-3.628-4.177c-2.4-0.229-4.418,1.652-4.418,4.004v6.022l-9.097-9.097c-2.265-2.265-5.937-2.265-8.202,0
	L8.952,36.484c-1.005,1.005-1.564,2.287-1.677,3.599c-0.216,2.499,1.882,4.603,4.39,4.603h4.824v20.291
	c0,3.589,2.91,6.499,6.499,6.499h34.645c3.589,0,6.499-2.91,6.499-6.499V44.686h5.116c2.056,0,3.898-1.499,4.093-3.545
	C73.501,39.477,72.944,37.758,71.67,36.484z"/>
</svg>
