<?xml version="1.0" encoding="utf-8"?>
<!-- Generator: Adobe Illustrator 17.1.0, SVG Export Plug-In . SVG Version: 6.00 Build 0)  -->
<!DOCTYPE svg PUBLIC "-//W3C//DTD SVG 1.1//EN" "http://www.w3.org/Graphics/SVG/1.1/DTD/svg11.dtd">
<svg version="1.1" id="Layer_1" xmlns="http://www.w3.org/2000/svg" xmlns:xlink="http://www.w3.org/1999/xlink" x="0px" y="0px"
	 viewBox="0 0 80 80" enable-background="new 0 0 80 80" xml:space="preserve">
<path d="M61.9,67.8V24h0.4c0.9,0,1.7-0.4,2.4-1c0.6-0.6,0.9-1.4,0.9-2.2v-7.4c0-1.7-1.5-3.1-3.3-3.1h-43c-1.8,0-3.3,1.4-3.3,3.1v7.4
	c0,1.7,1.5,3.1,3.3,3.1h0.6v43.8h-8.2v3h58.2v-3H61.9z M22.9,36.2h8.3v7.9h-8.3V36.2z M58.9,36.2v7.9H34.3v-7.9H58.9z M58.9,55.4
	h-9.8v-8.3h9.8V55.4z M22.9,47.1h23.2v8.3H22.9V47.1z M58.9,58.4v9.5H38.7v-9.5H58.9z M58.9,33.2H41.1V24h17.8V33.2z M19.1,20.9
	v-7.4c0,0,0.1-0.1,0.3-0.1h43c0.2,0,0.3,0.1,0.3,0.1l0,7.4c0,0-0.1,0.1-0.3,0.1h-0.4h-3H19.4C19.2,21,19.1,20.9,19.1,20.9z M38.1,24
	v9.2H22.9V24H38.1z M22.9,58.4h12.7v9.5H22.9V58.4z"/>
</svg>
