<?xml version="1.0" encoding="iso-8859-1"?>
<!-- Generator: Adobe Illustrator 17.1.0, SVG Export Plug-In . SVG Version: 6.00 Build 0)  -->
<!DOCTYPE svg PUBLIC "-//W3C//DTD SVG 1.1//EN" "http://www.w3.org/Graphics/SVG/1.1/DTD/svg11.dtd">
<svg version="1.1" id="Layer_1" xmlns="http://www.w3.org/2000/svg" xmlns:xlink="http://www.w3.org/1999/xlink" x="0px" y="0px"
	 viewBox="0 0 80 80" style="enable-background:new 0 0 80 80;" xml:space="preserve">
<line style="fill:none;stroke:#000000;stroke-width:2;stroke-miterlimit:10;" x1="18.771" y1="21.246" x2="44.064" y2="21.246"/>
<line style="fill:none;stroke:#000000;stroke-width:2;stroke-miterlimit:10;" x1="18.771" y1="30.361" x2="41.27" y2="30.361"/>
<line style="fill:none;stroke:#000000;stroke-width:2;stroke-miterlimit:10;" x1="18.771" y1="39.475" x2="36.52" y2="39.475"/>
<line style="fill:none;stroke:#000000;stroke-width:2;stroke-miterlimit:10;" x1="18.771" y1="48.589" x2="37.27" y2="48.589"/>
<line style="fill:none;stroke:#000000;stroke-width:2;stroke-miterlimit:10;" x1="18.771" y1="57.704" x2="44.064" y2="57.704"/>
<path style="fill:none;stroke:#000000;stroke-width:3;stroke-miterlimit:10;" d="M51.474,25V12.922c0-1.187-0.962-2.149-2.149-2.149
	H13.509c-1.187,0-2.149,0.962-2.149,2.149v53.007c0,1.187,0.962,2.149,2.149,2.149h35.815c1.187,0,2.149-0.962,2.149-2.149V60"/>
<circle style="fill:none;stroke:#000000;stroke-width:3;stroke-miterlimit:10;" cx="54.092" cy="42.644" r="12.004"/>
<path d="M71.448,64.646c0.889,1.271,0.74,2.909-0.333,3.66l0,0c-1.073,0.751-2.664,0.329-3.553-0.941l-8.249-11.791
	c-0.889-1.271-0.103-1.509,0.97-2.26l0,0c1.073-0.751,2.027-1.73,2.916-0.459L71.448,64.646z"/>
</svg>
