<?xml version="1.0" encoding="utf-8"?>
<!-- Generator: Adobe Illustrator 17.1.0, SVG Export Plug-In . SVG Version: 6.00 Build 0)  -->
<!DOCTYPE svg PUBLIC "-//W3C//DTD SVG 1.1//EN" "http://www.w3.org/Graphics/SVG/1.1/DTD/svg11.dtd">
<svg version="1.1" id="Layer_1" xmlns="http://www.w3.org/2000/svg" xmlns:xlink="http://www.w3.org/1999/xlink" x="0px" y="0px"
	 viewBox="0 0 80 80" enable-background="new 0 0 80 80" xml:space="preserve">
<g>
	<rect x="18.8" y="20.2" width="25.3" height="2"/>
	<rect x="18.8" y="29.4" width="22.5" height="2"/>
	<rect x="18.8" y="38.5" width="17.7" height="2"/>
	<rect x="18.8" y="47.6" width="18.5" height="2"/>
	<rect x="18.8" y="56.7" width="25.3" height="2"/>
	<path d="M50,65.9c0,0.4-0.3,0.6-0.6,0.6H13.5c-0.4,0-0.6-0.3-0.6-0.6v-53c0-0.4,0.3-0.6,0.6-0.6h35.8c0.4,0,0.6,0.3,0.6,0.6V25h3
		V12.9c0-2-1.6-3.6-3.6-3.6H13.5c-2,0-3.6,1.6-3.6,3.6v53c0,2,1.6,3.6,3.6,3.6h35.8c2,0,3.6-1.6,3.6-3.6V60h-3V65.9z"/>
	<path d="M71.4,64.6l-8.2-11.8c0-0.1-0.1-0.1-0.1-0.1c2.8-2.5,4.5-6.1,4.5-10.1c0-7.4-6.1-13.5-13.5-13.5s-13.5,6.1-13.5,13.5
		c0,7.4,6.1,13.5,13.5,13.5c1.8,0,3.4-0.3,5-1c0.1,0.1,0.1,0.2,0.2,0.4l8.2,11.8c0.9,1.3,2.5,1.7,3.6,0.9
		C72.2,67.6,72.3,65.9,71.4,64.6z M54.1,53.1c-5.8,0-10.5-4.7-10.5-10.5c0-5.8,4.7-10.5,10.5-10.5s10.5,4.7,10.5,10.5
		C64.6,48.4,59.9,53.1,54.1,53.1z"/>
</g>
</svg>
