<?xml version="1.0" encoding="iso-8859-1"?>
<!-- Generator: Adobe Illustrator 17.1.0, SVG Export Plug-In . SVG Version: 6.00 Build 0)  -->
<!DOCTYPE svg PUBLIC "-//W3C//DTD SVG 1.1//EN" "http://www.w3.org/Graphics/SVG/1.1/DTD/svg11.dtd">
<svg version="1.1" id="Layer_1" xmlns="http://www.w3.org/2000/svg" xmlns:xlink="http://www.w3.org/1999/xlink" x="0px" y="0px"
	 viewBox="0 0 80 80" style="enable-background:new 0 0 80 80;" xml:space="preserve">
<g>
	<path style="fill:none;stroke:#000000;stroke-width:3;stroke-miterlimit:10;" d="M67.699,39.5l-10.18-10.18V16.439
		c0-1.125-0.997-2.038-2.227-2.038h-2.227c-1.23,0-2.227,0.912-2.227,2.038v6.2l-5.845-5.845c-0.087-0.138-0.187-0.27-0.307-0.391
		l-2.625-2.625c-0.446-0.446-1.033-0.659-1.617-0.648c-0.584-0.011-1.171,0.203-1.617,0.648l-2.625,2.625
		c-0.12,0.12-0.22,0.253-0.307,0.391L13.191,39.5c-0.87,0.87-0.87,2.28,0,3.15l2.625,2.625c0.87,0.87,2.28,0.87,3.15,0l21.48-21.48
		l21.48,21.48c0.87,0.87,2.28,0.87,3.15,0l2.625-2.625C68.569,41.78,68.569,40.37,67.699,39.5z"/>
	<g>
		<g>
			<line style="fill:none;stroke:#000000;stroke-width:2;stroke-miterlimit:10;" x1="53.32" y1="59.824" x2="53.32" y2="67.386"/>
			<line style="fill:none;stroke:#000000;stroke-width:2;stroke-miterlimit:10;" x1="15.445" y1="59.824" x2="15.445" y2="67.386"/>
			<line style="fill:none;stroke:#000000;stroke-width:2;stroke-miterlimit:10;" x1="47.008" y1="63.399" x2="47.008" y2="67.487"/>
			<line style="fill:none;stroke:#000000;stroke-width:2;stroke-miterlimit:10;" x1="65.945" y1="59.824" x2="65.945" y2="67.386"/>
			<line style="fill:none;stroke:#000000;stroke-width:2;stroke-miterlimit:10;" x1="59.633" y1="63.399" x2="59.633" y2="67.487"/>
			<line style="fill:none;stroke:#000000;stroke-width:2;stroke-miterlimit:10;" x1="40.695" y1="59.824" x2="40.695" y2="67.386"/>
			<line style="fill:none;stroke:#000000;stroke-width:2;stroke-miterlimit:10;" x1="34.383" y1="63.399" x2="34.383" y2="67.487"/>
			<line style="fill:none;stroke:#000000;stroke-width:2;stroke-miterlimit:10;" x1="28.07" y1="59.824" x2="28.07" y2="67.386"/>
			<line style="fill:none;stroke:#000000;stroke-width:2;stroke-miterlimit:10;" x1="21.758" y1="63.399" x2="21.758" y2="67.487"/>
		</g>
		<path style="fill:none;stroke:#000000;stroke-width:2;stroke-miterlimit:10;" d="M71.945,66.105c0,1.105-0.895,2-2,2h-59
			c-1.105,0-2-0.895-2-2v-8.5c0-1.105,0.895-2,2-2h59c1.105,0,2,0.895,2,2V66.105z"/>
	</g>
</g>
</svg>
