<?xml version="1.0" encoding="utf-8"?>
<!-- Generator: Adobe Illustrator 17.1.0, SVG Export Plug-In . SVG Version: 6.00 Build 0)  -->
<!DOCTYPE svg PUBLIC "-//W3C//DTD SVG 1.1//EN" "http://www.w3.org/Graphics/SVG/1.1/DTD/svg11.dtd">
<svg version="1.1" id="Layer_1" xmlns="http://www.w3.org/2000/svg" xmlns:xlink="http://www.w3.org/1999/xlink" x="0px" y="0px"
	 viewBox="0 0 80 80" enable-background="new 0 0 80 80" xml:space="preserve">
<g>
	<path d="M14.8,46.3c1.4,1.4,3.9,1.4,5.3,0l20.4-20.4l20.4,20.4c0.7,0.7,1.6,1.1,2.6,1.1s1.9-0.4,2.6-1.1l2.6-2.6
		c1.5-1.5,1.4-3.8,0-5.3L59,28.7V16.4c0-2-1.7-3.5-3.7-3.5h-2.2c-2.1,0-3.7,1.6-3.7,3.5V19l-3.2-3.2c-0.1-0.2-0.3-0.3-0.4-0.5
		l-2.6-2.6c-0.7-0.7-1.6-1.1-2.7-1.1c-1,0-1.9,0.4-2.6,1.1l-2.6,2.6c-0.1,0.1-0.3,0.3-0.4,0.5L12.1,38.4c-1.5,1.5-1.5,3.8,0,5.3
		L14.8,46.3z M14.3,40.6L37,17.9l0.2-0.3c0-0.1,0.1-0.1,0.1-0.1l2.6-2.6c0.2-0.2,0.4-0.2,0.6-0.2c0.1,0,0.3,0,0.5,0.2l2.6,2.6
		c0,0,0.1,0.1,0.1,0.1l8.6,8.7v-9.8c0-0.3,0.3-0.5,0.7-0.5h2.2c0.4,0,0.7,0.2,0.7,0.5v13.5l10.6,10.6c0.3,0.3,0.3,0.7,0,1L64,44.2
		c-0.2,0.2-0.4,0.2-0.5,0.2s-0.3,0-0.5-0.2L40.4,21.7L17.9,44.2c-0.2,0.2-0.4,0.2-0.5,0.2c-0.1,0-0.3,0-0.5-0.2l-2.6-2.6
		C14,41.3,14,40.8,14.3,40.6z"/>
	<path d="M69.9,54.6h-59c-1.7,0-3,1.3-3,3v8.5c0,1.7,1.3,3,3,3h59c1.7,0,3-1.3,3-3v-8.5C72.9,56,71.6,54.6,69.9,54.6z M70.9,66.1
		c0,0.6-0.4,1-1,1h-3v-7.3h-2v7.3h-4.3v-3.7h-2v3.7h-4.3v-7.3h-2v7.3H48v-3.7h-2v3.7h-4.3v-7.3h-2v7.3h-4.3v-3.7h-2v3.7h-4.3v-7.3
		h-2v7.3h-4.3v-3.7h-2v3.7h-4.3v-7.3h-2v7.3h-3.5c-0.6,0-1-0.4-1-1v-8.5c0-0.6,0.4-1,1-1h59c0.6,0,1,0.4,1,1V66.1z"/>
</g>
</svg>
