<?xml version="1.0" encoding="iso-8859-1"?>
<!-- Generator: Adobe Illustrator 17.1.0, SVG Export Plug-In . SVG Version: 6.00 Build 0)  -->
<!DOCTYPE svg PUBLIC "-//W3C//DTD SVG 1.1//EN" "http://www.w3.org/Graphics/SVG/1.1/DTD/svg11.dtd">
<svg version="1.1" id="Layer_1" xmlns="http://www.w3.org/2000/svg" xmlns:xlink="http://www.w3.org/1999/xlink" x="0px" y="0px"
	 viewBox="0 0 80 80" style="enable-background:new 0 0 80 80;" xml:space="preserve">
<path style="fill:#231F20;" d="M893.089,81.541l-1.435-1.588c-0.634-0.702-1.717-0.757-2.419-0.123l-16.662,15.055l-4.545-5.176
	c-0.624-0.711-1.706-0.781-2.417-0.157l-0.965,0.847c-0.711,0.624-0.781,1.706-0.157,2.417l7.062,8.044
	c0.624,0.711,1.706,0.781,2.417,0.157l0.835-0.733c0.131-0.067,0.259-0.145,0.373-0.249l17.79-16.074
	C893.668,83.325,893.723,82.242,893.089,81.541z"/>
<path style="fill:#231F20;" d="M59.43,30.159l-1.848-2.045c-0.816-0.903-2.211-0.974-3.114-0.158L33.018,47.338l-5.851-6.664
	c-0.803-0.915-2.196-1.006-3.111-0.202l-1.243,1.091c-0.915,0.803-1.006,2.196-0.202,3.111l9.091,10.355
	c0.803,0.915,2.196,1.006,3.111,0.202l1.076-0.944c0.169-0.086,0.333-0.187,0.48-0.321l22.903-20.693
	C60.176,32.457,60.246,31.063,59.43,30.159z"/>
</svg>
