<?xml version="1.0" encoding="utf-8"?>
<!-- Generator: Adobe Illustrator 17.1.0, SVG Export Plug-In . SVG Version: 6.00 Build 0)  -->
<!DOCTYPE svg PUBLIC "-//W3C//DTD SVG 1.1//EN" "http://www.w3.org/Graphics/SVG/1.1/DTD/svg11.dtd">
<svg version="1.1" id="Layer_1" xmlns="http://www.w3.org/2000/svg" xmlns:xlink="http://www.w3.org/1999/xlink" x="0px" y="0px"
	 viewBox="0 0 80 80" enable-background="new 0 0 80 80" xml:space="preserve">
<g>
	<path d="M27,34.6l0.6-2.1c-3.3-2.8-5.3-6.9-5.3-11.3c0-8.1,6.6-14.7,14.7-14.7s14.7,6.6,14.7,14.7c0,4.2-1.8,8.1-4.8,10.8l0.7,2.1
		c3.8-3.1,6.1-7.8,6.1-12.9C53.8,12,46.3,4.5,37,4.5c-9.2,0-16.7,7.5-16.7,16.7C20.3,26.5,22.9,31.5,27,34.6z"/>
	<path d="M45.3,26.8c1.1-1.7,1.8-3.6,1.8-5.7c0-5.5-4.5-10-10.1-10s-10.1,4.5-10.1,10.1c0,2.2,0.7,4.4,2.1,6.1l0.7-2.7
		c-0.5-1.1-0.8-2.2-0.8-3.4c0-4.5,3.6-8.1,8.1-8.1s8.1,3.6,8.1,8.1c0,1.1-0.2,2.1-0.6,3L45.3,26.8z"/>
	<path d="M61.4,52c0-0.2-0.3-5.1-6.2-7c-2-0.6-3.9-1.3-5.8-1.9c-2-0.7-3.8-1.3-5.4-1.8c-0.3-0.1-0.9-0.3-0.9-2.3l-0.7-13.6
		c0-2.9-2.2-5.3-4.9-5.4c-3-0.1-5.5,2.2-5.5,5.2v21.5c0,0.7-0.3,1.5-0.8,2c-0.1,0.2-0.3,0.2-0.4,0.2c-0.1,0-0.4,0-0.5-0.3l-1.9-2.5
		c-0.4-0.5-0.7-0.8-1-1.2l-0.2-0.1c-0.8-0.6-2.1-1.3-3.6-1.3c-0.7,0-1.4,0.2-2,0.5c-2.4,1.3-3.2,4.2-1.9,6.7l10,18.6
		c0.3,0.5,2.7,5.2,6.4,5.2h17.9c0.8,0,1.7-0.1,2.6-0.4c3.7-1.3,4.5-3.5,4.5-5.1c0-3.2,0.4-16.7,0.4-16.9L61.4,52L61.4,52z M58,69
		c0,0.6-0.3,1.5-2.4,2.3c-0.6,0.2-1.1,0.2-1.7,0.2H36c-1.5,0-3.2-2.4-3.8-3.6l-10-18.6c-0.5-1-0.2-2.2,0.6-2.7
		c0.2-0.1,0.4-0.2,0.7-0.2c0.7,0,1.3,0.4,1.7,0.7c0.2,0.2,0.5,0.5,0.7,0.8l1.9,2.5c0.7,0.9,1.8,1.5,3,1.5c1,0,2-0.4,2.6-1.1
		c1-1,1.6-2.5,1.6-4.1V25.2c0-1.2,1-2.2,2.2-2.2l0.1,0c1.1,0.1,2.1,1.1,2.1,2.5l0.7,13.6c0,2.8,1,4.5,3.1,5.1
		c1.6,0.5,3.4,1.1,5.3,1.7c1.9,0.6,3.8,1.3,5.8,1.9c3.6,1.2,4,3.9,4.1,4.2C58.4,53.4,58,65.8,58,69z"/>
</g>
</svg>
