<?xml version="1.0" encoding="utf-8"?>
<!-- Generator: Adobe Illustrator 17.1.0, SVG Export Plug-In . SVG Version: 6.00 Build 0)  -->
<!DOCTYPE svg PUBLIC "-//W3C//DTD SVG 1.1//EN" "http://www.w3.org/Graphics/SVG/1.1/DTD/svg11.dtd">
<svg version="1.1" id="Layer_1" xmlns="http://www.w3.org/2000/svg" xmlns:xlink="http://www.w3.org/1999/xlink" x="0px" y="0px"
	 viewBox="0 0 80 80" enable-background="new 0 0 80 80" xml:space="preserve">
<g>
	<g>
		<path d="M27.6,32.5c-3.3-2.8-5.3-6.9-5.3-11.3c0-8.1,6.6-14.7,14.7-14.7c8.1,0,14.7,6.6,14.7,14.7c0,4.2-1.8,8.1-4.8,10.8l0.7,2.1
			c3.8-3.1,6.1-7.8,6.1-12.9C53.8,12,46.3,4.5,37,4.5c-9.2,0-16.7,7.5-16.7,16.7c0,5.3,2.6,10.3,6.7,13.4L27.6,32.5z"/>
		<path d="M37,11.1c-5.6,0-10.1,4.5-10.1,10.1c0,2.2,0.7,4.4,2.1,6.1l0.7-2.7c-0.5-1.1-0.8-2.2-0.8-3.4c0-4.5,3.6-8.1,8.1-8.1
			c4.5,0,8.1,3.6,8.1,8.1c0,1.1-0.2,2.1-0.6,3l0.8,2.6c1.1-1.7,1.8-3.6,1.8-5.7C47.1,15.6,42.6,11.1,37,11.1z"/>
	</g>
	<path fill="none" stroke="#000000" stroke-width="3" stroke-miterlimit="10" d="M54.8,46.5c-4.2-1.3-8.1-2.8-11.2-3.7
		c-1.6-0.5-2-2-2-3.7l-0.7-13.7c0-2-1.5-3.8-3.5-3.9c-2.1-0.1-3.9,1.6-3.9,3.7v21.5c0,1.1-0.4,2.2-1.2,3l0,0c-0.9,1-2.5,0.9-3.3-0.2
		L27.1,47c-0.3-0.4-0.6-0.7-0.9-1c-0.8-0.6-2.4-1.5-4-0.7c-1.7,0.9-2.2,3-1.3,4.7l10,18.6c0,0,2.2,4.4,5.1,4.4h17.9
		c0.7,0,1.4-0.1,2.1-0.3c1.4-0.5,3.5-1.5,3.5-3.7c0-3.3,0.4-16.9,0.4-16.9S59.7,48.1,54.8,46.5z"/>
</g>
</svg>
