<?xml version="1.0" encoding="iso-8859-1"?>
<!-- Generator: Adobe Illustrator 17.1.0, SVG Export Plug-In . SVG Version: 6.00 Build 0)  -->
<!DOCTYPE svg PUBLIC "-//W3C//DTD SVG 1.1//EN" "http://www.w3.org/Graphics/SVG/1.1/DTD/svg11.dtd">
<svg version="1.1" id="Layer_1" xmlns="http://www.w3.org/2000/svg" xmlns:xlink="http://www.w3.org/1999/xlink" x="0px" y="0px"
	 viewBox="0 0 80 80" style="enable-background:new 0 0 80 80;" xml:space="preserve">
<g>
	<path style="fill:none;stroke:#000000;stroke-width:3;stroke-miterlimit:10;" d="M61.552,14.951H46.708v-2.236
		c0-0.947-0.768-1.715-1.715-1.715H33.46c-0.947,0-1.715,0.768-1.715,1.715v2.236H16.901c-1.049,0-1.9,0.851-1.9,1.9v1.9
		c0,1.049,0.851,1.9,1.9,1.9h44.651c1.049,0,1.9-0.851,1.9-1.9v-1.9C63.452,15.802,62.601,14.951,61.552,14.951z"/>
	<g>
		<path style="fill:none;stroke:#000000;stroke-width:3;stroke-miterlimit:10;" d="M56.788,69.238c0,1.003-0.942,1.815-2.104,1.815
			H23.769c-1.162,0-2.104-0.813-2.104-1.815l-3.216-41.3c0-1.003,0.942-1.815,2.104-1.815H57.9c1.162,0,2.104,0.813,2.104,1.815
			L56.788,69.238z"/>
		<path style="fill:none;stroke:#000000;stroke-width:2;stroke-miterlimit:10;" d="M31.822,60.755
			c0.092,1.09-0.627,2.04-1.605,2.123l-1.181,0.1c-0.979,0.083-1.847-0.734-1.939-1.824l-2.112-24.997
			c-0.092-1.09,0.627-2.04,1.605-2.123l1.181-0.1c0.979-0.083,1.847,0.734,1.939,1.824L31.822,60.755z"/>
		<path style="fill:none;stroke:#000000;stroke-width:2;stroke-miterlimit:10;" d="M46.773,60.755
			c-0.092,1.09,0.627,2.04,1.605,2.123l1.181,0.1c0.979,0.083,1.847-0.734,1.939-1.824l2.112-24.997
			c0.092-1.09-0.627-2.04-1.605-2.123l-1.181-0.1c-0.979-0.083-1.847,0.734-1.939,1.824L46.773,60.755z"/>
		<path style="fill:none;stroke:#000000;stroke-width:2;stroke-miterlimit:10;" d="M36.829,61.011
			c0.006,1.094,0.806,1.976,1.789,1.971l1.186-0.006c0.982-0.005,1.774-0.896,1.768-1.99l-0.13-25.086
			c-0.006-1.094-0.806-1.976-1.789-1.971l-1.186,0.006c-0.982,0.005-1.774,0.896-1.768,1.99L36.829,61.011z"/>
	</g>
</g>
</svg>
