<?xml version="1.0" encoding="utf-8"?>
<!-- Generator: Adobe Illustrator 17.1.0, SVG Export Plug-In . SVG Version: 6.00 Build 0)  -->
<!DOCTYPE svg PUBLIC "-//W3C//DTD SVG 1.1//EN" "http://www.w3.org/Graphics/SVG/1.1/DTD/svg11.dtd">
<svg version="1.1" id="Layer_1" xmlns="http://www.w3.org/2000/svg" xmlns:xlink="http://www.w3.org/1999/xlink" x="0px" y="0px"
	 viewBox="0 0 80 80" enable-background="new 0 0 80 80" xml:space="preserve">
<g>
	<path d="M61.6,13.5H48.2v-0.7c0-1.8-1.4-3.2-3.2-3.2H33.5c-1.8,0-3.2,1.4-3.2,3.2v0.7H16.9c-1.9,0-3.4,1.5-3.4,3.4v1.9
		c0,1.9,1.5,3.4,3.4,3.4h44.7c1.9,0,3.4-1.5,3.4-3.4v-1.9C65,15,63.4,13.5,61.6,13.5z M62,18.8c0,0.2-0.2,0.4-0.4,0.4H16.9
		c-0.2,0-0.4-0.2-0.4-0.4v-1.9c0-0.2,0.2-0.4,0.4-0.4h16.3v-3.7c0-0.1,0.1-0.2,0.2-0.2H45c0.1,0,0.2,0.1,0.2,0.2v3.7h16.3
		c0.2,0,0.4,0.2,0.4,0.4V18.8z"/>
	<path d="M57.9,24.6H20.6c-2,0-3.6,1.5-3.6,3.3l3.2,41.4c0,1.8,1.6,3.2,3.6,3.2h30.9c2,0,3.6-1.5,3.6-3.2l3.2-41.3l0-0.1
		C61.5,26.1,59.9,24.6,57.9,24.6z M55.3,69.1l0,0.1c0,0.1-0.2,0.3-0.6,0.3H23.8c-0.4,0-0.6-0.2-0.6-0.3L20,27.9
		c0-0.1,0.2-0.3,0.6-0.3h37.3c0.4,0,0.6,0.2,0.6,0.3L55.3,69.1z"/>
	<path d="M27.7,32.9L26.5,33c-1.5,0.1-2.7,1.6-2.5,3.2l2.1,25c0.1,1.5,1.4,2.7,2.8,2.7c0.1,0,0.1,0,0.2,0l1.2-0.1
		c1.5-0.1,2.7-1.6,2.5-3.2l-2.1-25C30.6,34.1,29.2,32.8,27.7,32.9z M30.1,61.9L29,62l-0.1,0c-0.4,0-0.8-0.4-0.8-0.9l-2.1-25
		c0-0.5,0.3-1,0.7-1l1.2-0.1c0.4,0,0.8,0.4,0.8,0.9l2.1,25C30.9,61.4,30.6,61.8,30.1,61.9z"/>
	<path d="M52.1,33l-1.2-0.1c-1.5-0.1-2.9,1.1-3,2.7l-2.1,25c-0.1,0.8,0.1,1.5,0.6,2.1c0.5,0.6,1.2,1,1.9,1.1l1.2,0.1
		c0.1,0,0.1,0,0.2,0c1.4,0,2.7-1.2,2.8-2.7l2.1-25C54.7,34.6,53.6,33.2,52.1,33z M50.5,61.1c0,0.5-0.4,0.9-0.8,0.9l-1.2-0.1
		c-0.3,0-0.4-0.2-0.5-0.3c-0.2-0.2-0.2-0.5-0.2-0.8l2.1-25c0-0.5,0.4-0.9,0.9-0.9c0,0,0,0,0,0l1.2,0.1c0.4,0,0.7,0.5,0.7,1
		L50.5,61.1z"/>
	<path d="M39.6,32.9l-1.2,0c-0.8,0-1.5,0.3-2,0.9c-0.5,0.6-0.8,1.3-0.8,2.1L35.8,61c0,1.6,1.3,3,2.8,3l1.2,0c0.8,0,1.5-0.3,2-0.9
		c0.5-0.6,0.8-1.3,0.8-2.1l-0.1-25.1C42.4,34.3,41.2,32.9,39.6,32.9z M40.3,61.7c-0.1,0.1-0.3,0.2-0.5,0.3l-1.2,0l0,1l0-1
		c-0.4,0-0.8-0.4-0.8-1l-0.1-25.1c0-0.3,0.1-0.5,0.3-0.7c0.1-0.1,0.3-0.2,0.5-0.3l1.2,0c0.4,0,0.8,0.4,0.8,1L40.6,61
		C40.6,61.3,40.5,61.5,40.3,61.7z"/>
</g>
</svg>
